<svg width="35" height="36" viewBox="0 0 35 36" fill="none" xmlns="http://www.w3.org/2000/svg">
<path fill-rule="evenodd" clip-rule="evenodd" d="M19.3349 35.0618C19.3349 35.0618 18.2119 35.1048 17.4876 35.0939C7.85418 34.9498 0.0429688 27.2493 0.0429688 17.5726C0.0429688 8.04333 7.65668 0.277388 17.0886 0.0429688L17.0724 4.52678C17.0724 4.52678 17.0552 6.15154 14.6802 6.99767C14.4564 7.07708 12.7112 7.02423 12.7112 7.02423C12.7112 7.02423 10.0641 6.91523 9.55429 9.77177C9.44833 10.3655 9.4458 25.5765 9.4458 25.5765C9.4458 25.5765 9.51054 28.6738 12.6791 28.6738H16.2849C16.2849 28.6738 19.3521 28.6396 19.3521 31.6378C19.3524 34.6362 19.3349 35.0618 19.3349 35.0618Z" fill="white" stroke="white" stroke-width="0.084209" stroke-miterlimit="2.613"/>
<path fill-rule="evenodd" clip-rule="evenodd" d="M20.1304 0.25C21.3528 0.436693 22.5516 0.753846 23.7064 1.19602V4.23943C23.7064 4.23943 23.6432 5.90541 22.8213 6.54975C22.1808 7.0507 21.7693 7.2525 21.0066 7.43027C20.3191 7.58984 19.5407 7.51802 19.5407 7.51802C19.5407 7.51802 17.372 7.37717 17.372 9.7459V23.5053C17.372 23.5053 17.0306 26.4585 20.5398 26.7839C20.8585 26.8135 23.3541 26.7839 23.3541 26.7839C23.3541 26.7839 26.3083 26.8201 26.3083 29.8031C26.3083 32.7858 26.3245 32.6836 26.3245 32.6836C24.2683 33.8997 22.5914 34.3994 22.5914 34.3994V30.7949C22.5914 27.9535 19.6886 27.9007 19.6886 27.9007C19.6886 27.9007 18.5481 27.8127 15.9422 27.8127C13.3355 27.8127 13.2468 24.7637 13.2468 24.7637C13.2468 24.7637 13.2991 13.6688 13.2468 10.3902C13.1947 7.11139 16.1428 7.25225 16.1428 7.25225C16.1428 7.25225 15.0025 7.31142 17.6079 7.19307C20.2149 7.07472 20.1342 4.73558 20.1342 4.73558L20.1304 0.25Z" fill="white" stroke="white" stroke-width="0.084209" stroke-miterlimit="2.613"/>
<path fill-rule="evenodd" clip-rule="evenodd" d="M28.5619 4.18836C27.8002 3.5549 26.9359 2.95886 26.0736 2.46094V5.35161C26.0736 5.35161 26.0035 7.01809 24.4759 7.30637C24.0768 7.38198 22.7527 7.42067 22.7527 7.42067C22.7527 7.42067 20.5317 7.62019 20.5317 10.0987V23.3883C20.5317 23.3883 20.4305 25.9487 23.2921 25.9487C26.1542 25.9487 25.5617 25.9649 25.5617 25.9649C25.5617 25.9649 28.6008 26.112 28.6008 29.3327C28.6008 30.2603 28.6008 30.7997 28.6018 31.0966C29.3863 30.4358 30.2076 29.6084 30.8654 28.8206V26.9577C30.8654 26.9577 30.8679 25.0353 28.7945 25.0353H26.3446C26.3446 25.0353 23.8952 25.0219 23.8952 22.6382V9.11674C23.8952 9.11674 23.7807 7.55748 25.8836 7.55748H26.5899C26.5899 7.55748 28.5621 7.29271 28.5621 5.66745L28.5619 4.18836Z" fill="white" stroke="white" stroke-width="0.084209" stroke-miterlimit="2.613"/>
<path fill-rule="evenodd" clip-rule="evenodd" d="M30.3784 6.24414L30.3774 6.94462C30.3774 6.94462 30.238 7.66684 29.4306 7.6848C28.6232 7.70351 28.0828 7.6848 28.0828 7.6848C28.0828 7.6848 26.5996 7.90531 26.5996 9.19803V22.0886C26.5996 22.0886 26.7883 24.0957 28.6755 24.1228C30.5617 24.1493 30.9135 24.1228 30.9135 24.1228C30.9135 24.1228 32.3468 24.2497 32.4894 25.8188C33.1355 25.2104 33.3227 24.1346 33.2959 24.1045C32.7931 23.5396 31.8977 23.4873 31.8977 23.4873C31.8977 23.4873 32.6538 23.5421 30.6872 23.4319C28.7205 23.3226 29.0083 21.4116 29.0083 21.4116V9.25721C29.0083 8.92138 29.0948 8.66117 29.3186 8.49755C29.5424 8.33394 29.8284 8.41739 30.5969 8.29727C31.3654 8.1764 31.438 7.28196 31.438 7.28196C31.438 7.28196 31.1684 6.93602 31.1135 6.88064C30.8316 6.59387 30.5994 6.40851 30.5994 6.40851L30.3784 6.24414Z" fill="white" stroke="white" stroke-width="0.084209" stroke-miterlimit="2.613"/>
<path fill-rule="evenodd" clip-rule="evenodd" d="M32.8305 9.77153C32.8879 9.75509 32.2782 8.85838 32.2536 8.8341C32.195 8.77796 31.2806 9.31331 31.2396 10.1812C31.1971 11.0486 31.2396 21.0287 31.2396 21.0287C31.2396 21.0287 31.2659 22.3789 32.8138 22.5503C33.0386 22.5756 33.9864 22.6001 33.9864 22.6001V21.7768L33.2128 21.7019C33.2128 21.7019 32.5895 21.6521 32.5895 20.8292V10.2528C32.5895 10.2528 32.7242 9.80112 32.8305 9.77153Z" fill="white" stroke="white" stroke-width="0.084209" stroke-miterlimit="2.613"/>
</svg>
